<svg width="116" height="24" viewBox="0 0 116 24" fill="none" xmlns="http://www.w3.org/2000/svg">
<path d="M10.1136 23.384C8.27896 23.384 6.63629 22.936 5.18563 22.04C3.73496 21.1227 2.59363 19.8 1.76163 18.072C0.929625 16.344 0.513625 14.2533 0.513625 11.8C0.513625 9.34667 0.929625 7.256 1.76163 5.528C2.59363 3.8 3.73496 2.488 5.18563 1.592C6.63629 0.674666 8.27896 0.216 10.1136 0.216C11.9696 0.216 13.6123 0.674666 15.0416 1.592C16.4923 2.488 17.6336 3.8 18.4656 5.528C19.2976 7.256 19.7136 9.34667 19.7136 11.8C19.7136 14.2533 19.2976 16.344 18.4656 18.072C17.6336 19.8 16.4923 21.1227 15.0416 22.04C13.6123 22.936 11.9696 23.384 10.1136 23.384ZM10.1136 19C10.9883 19 11.7456 18.7547 12.3856 18.264C13.047 17.7733 13.559 16.9947 13.9216 15.928C14.3056 14.8613 14.4976 13.4853 14.4976 11.8C14.4976 10.1147 14.3056 8.73867 13.9216 7.672C13.559 6.60533 13.047 5.82667 12.3856 5.336C11.7456 4.84533 10.9883 4.6 10.1136 4.6C9.26029 4.6 8.50296 4.84533 7.84163 5.336C7.20163 5.82667 6.68963 6.60533 6.30563 7.672C5.94296 8.73867 5.76163 10.1147 5.76163 11.8C5.76163 13.4853 5.94296 14.8613 6.30563 15.928C6.68963 16.9947 7.20163 17.7733 7.84163 18.264C8.50296 18.7547 9.26029 19 10.1136 19ZM31.8324 23.384C29.9977 23.384 28.355 22.936 26.9044 22.04C25.4537 21.1227 24.3124 19.8 23.4804 18.072C22.6484 16.344 22.2324 14.2533 22.2324 11.8C22.2324 9.34667 22.6484 7.256 23.4804 5.528C24.3124 3.8 25.4537 2.488 26.9044 1.592C28.355 0.674666 29.9977 0.216 31.8324 0.216C33.6884 0.216 35.331 0.674666 36.7604 1.592C38.211 2.488 39.3524 3.8 40.1844 5.528C41.0164 7.256 41.4324 9.34667 41.4324 11.8C41.4324 14.2533 41.0164 16.344 40.1844 18.072C39.3524 19.8 38.211 21.1227 36.7604 22.04C35.331 22.936 33.6884 23.384 31.8324 23.384ZM31.8324 19C32.707 19 33.4644 18.7547 34.1044 18.264C34.7657 17.7733 35.2777 16.9947 35.6404 15.928C36.0244 14.8613 36.2164 13.4853 36.2164 11.8C36.2164 10.1147 36.0244 8.73867 35.6404 7.672C35.2777 6.60533 34.7657 5.82667 34.1044 5.336C33.4644 4.84533 32.707 4.6 31.8324 4.6C30.979 4.6 30.2217 4.84533 29.5604 5.336C28.9204 5.82667 28.4084 6.60533 28.0244 7.672C27.6617 8.73867 27.4804 10.1147 27.4804 11.8C27.4804 13.4853 27.6617 14.8613 28.0244 15.928C28.4084 16.9947 28.9204 17.7733 29.5604 18.264C30.2217 18.7547 30.979 19 31.8324 19ZM53.5511 23.384C51.7165 23.384 50.0738 22.936 48.6231 22.04C47.1725 21.1227 46.0311 19.8 45.1991 18.072C44.3671 16.344 43.9511 14.2533 43.9511 11.8C43.9511 9.34667 44.3671 7.256 45.1991 5.528C46.0311 3.8 47.1725 2.488 48.6231 1.592C50.0738 0.674666 51.7165 0.216 53.5511 0.216C55.4071 0.216 57.0498 0.674666 58.4791 1.592C59.9298 2.488 61.0711 3.8 61.9031 5.528C62.7351 7.256 63.1511 9.34667 63.1511 11.8C63.1511 14.2533 62.7351 16.344 61.9031 18.072C61.0711 19.8 59.9298 21.1227 58.4791 22.04C57.0498 22.936 55.4071 23.384 53.5511 23.384ZM53.5511 19C54.4258 19 55.1831 18.7547 55.8231 18.264C56.4845 17.7733 56.9965 16.9947 57.3591 15.928C57.7431 14.8613 57.9351 13.4853 57.9351 11.8C57.9351 10.1147 57.7431 8.73867 57.3591 7.672C56.9965 6.60533 56.4845 5.82667 55.8231 5.336C55.1831 4.84533 54.4258 4.6 53.5511 4.6C52.6978 4.6 51.9405 4.84533 51.2791 5.336C50.6391 5.82667 50.1271 6.60533 49.7431 7.672C49.3805 8.73867 49.1991 10.1147 49.1991 11.8C49.1991 13.4853 49.3805 14.8613 49.7431 15.928C50.1271 16.9947 50.6391 17.7733 51.2791 18.264C51.9405 18.7547 52.6978 19 53.5511 19ZM77.6764 23.256C76.823 23.256 76.087 22.968 75.4684 22.392C74.871 21.7947 74.5724 21.0373 74.5724 20.12C74.5724 19.2027 74.871 18.4667 75.4684 17.912C76.087 17.336 76.823 17.048 77.6764 17.048C78.551 17.048 79.287 17.336 79.8844 17.912C80.4817 18.4667 80.7804 19.2027 80.7804 20.12C80.7804 21.0373 80.4817 21.7947 79.8844 22.392C79.287 22.968 78.551 23.256 77.6764 23.256ZM95.1139 23.256C94.2605 23.256 93.5245 22.968 92.9059 22.392C92.3085 21.7947 92.0099 21.0373 92.0099 20.12C92.0099 19.2027 92.3085 18.4667 92.9059 17.912C93.5245 17.336 94.2605 17.048 95.1139 17.048C95.9885 17.048 96.7245 17.336 97.3219 17.912C97.9192 18.4667 98.2179 19.2027 98.2179 20.12C98.2179 21.0373 97.9192 21.7947 97.3219 22.392C96.7245 22.968 95.9885 23.256 95.1139 23.256ZM112.551 23.256C111.698 23.256 110.962 22.968 110.343 22.392C109.746 21.7947 109.447 21.0373 109.447 20.12C109.447 19.2027 109.746 18.4667 110.343 17.912C110.962 17.336 111.698 17.048 112.551 17.048C113.426 17.048 114.162 17.336 114.759 17.912C115.357 18.4667 115.655 19.2027 115.655 20.12C115.655 21.0373 115.357 21.7947 114.759 22.392C114.162 22.968 113.426 23.256 112.551 23.256Z" fill="black"/>
</svg>
